# xmcd
#
# Track frame offsets: 
#        182
#        18765
#        39060
#        60302
#        81897
#        100087
#        117922
#        136090
#        163500
#        182765
#        201500
#        217887
#
# Disc length: 3119 seconds
#
# Revision: 3
# Processed by: cddbd v1.5.2PL0 Copyright (c) Steve Scherf et al.
# Submitted via: ExactAudioCopy v1.0b3
#
DISCID=8f0c2d0c
DTITLE=N-Phase - N-Phase
DYEAR=1994
DGENRE=R&B
TTITLE0=Ooh Yea
TTITLE1=Spend The Night
TTITLE2=Turning Tricks
TTITLE3=Come Back To Me
TTITLE4=Don't Hold Back
TTITLE5=69 Wayz
TTITLE6=Oh Baby
TTITLE7=Last Teardrop
TTITLE8=Mother
TTITLE9=Give Me Your Heart
TTITLE10=Kiss And Say Goodbye
TTITLE11=Jesus Is Love
EXTD=
EXTT0=
EXTT1=
EXTT2=
EXTT3=
EXTT4=
EXTT5=
EXTT6=
EXTT7=
EXTT8=
EXTT9=
EXTT10=
EXTT11=
PLAYORDER=
